<svg xmlns="http://www.w3.org/2000/svg" width="100" height="100" version="1.0"><path fill="#B62025" d="M78.612 64.809C70.977 72.455 60.813 76.664 50 76.664c-10.814 0-20.977-4.209-28.621-11.855l-4.713 4.713c18.404 18.416 48.261 18.416 66.666 0l-4.72-4.713z"/><path fill="#FFC00E" d="m36.768 60-5.093 12.289a39.924 39.924 0 0 0 6.175 2.523L43.986 60h-7.218zm19.246 0 6.136 14.813a40.064 40.064 0 0 0 6.175-2.523L63.231 60h-7.217z"/><path fill="#F68E1E" d="M35.154 63.896c.506.063 1.012.104 1.512.104h5.663l1.657-4h-7.218l-1.614 3.896zM63.231 60h-7.217l1.657 4h7.218z"/><path fill="#EEEAE8" d="M36.666 53.332c-1.146 0-3.177-1.256-3.685-2.277L27.454 40H16.667v-3.236l16.341-11.673c2.382 2.539 3.658 5.371 3.658 8.239L36.66 40H70v13.332H36.666z"/><path fill="#D7CCC8" d="M17.736 36h12.19l6.494 12.989c.149.119.384.264.558.343H66V40h4v13.332H36.666c-1.146 0-3.177-1.256-3.685-2.277L27.454 40H16.667v-3.236L17.736 36z"/><path fill="#7A5649" d="M80 23.334c-5.522 0-10 4.479-10 10l-26.667.006v-.006c0-6.032-3.333-12.064-10-16.667L10 33.334v13.333h13.333l3.685 7.37C28.658 57.318 33 60 36.666 60H70a6.668 6.668 0 0 0 6.665-6.668V33.334a3.333 3.333 0 1 1 6.667 0v13.333H90V33.334c0-5.521-4.48-10-10-10zM70 53.332H36.666c-1.146 0-3.177-1.256-3.685-2.277L27.454 40H16.667v-3.236l16.341-11.673c2.382 2.539 3.658 5.371 3.658 8.239L36.66 40H70v13.332z"/></svg>